<?xml version="1.0" standalone="no"?>
<!DOCTYPE svg PUBLIC "-//W3C//DTD SVG 20010904//EN"
 "http://www.w3.org/TR/2001/REC-SVG-20010904/DTD/svg10.dtd">
<svg version="1.0" xmlns="http://www.w3.org/2000/svg"
 width="300.000000pt" height="300.000000pt" viewBox="0 0 300.000000 300.000000"
 preserveAspectRatio="xMidYMid meet">
<metadata>
Created by potrace 1.14, written by Peter Selinger 2001-2017
</metadata>
<g transform="translate(0.000000,300.000000) scale(0.100000,-0.100000)"
fill="#000000" stroke="none">
<path d="M2570 2873 c0 -5 -23 -24 -50 -43 -27 -19 -50 -38 -50 -42 0 -5 -7
-8 -15 -8 -8 0 -15 -4 -15 -9 0 -5 -16 -19 -36 -32 -20 -12 -43 -29 -52 -38
-10 -10 -37 -33 -62 -51 -25 -19 -49 -38 -55 -43 -5 -4 -77 -60 -160 -124
-170 -133 -183 -145 -217 -199 -45 -72 -55 -110 -61 -244 -6 -121 -47 -251
-102 -324 -17 -22 -8 -28 -124 84 -31 30 -95 89 -140 130 -46 41 -89 80 -95
85 -6 6 -54 47 -106 90 -52 44 -97 82 -100 85 -3 3 -34 27 -70 55 -36 27 -66
53 -68 57 -2 5 -10 8 -17 8 -7 0 -15 4 -17 8 -2 4 -32 28 -68 52 -36 25 -67
48 -70 51 -17 20 -346 211 -370 214 -3 1 -18 8 -35 17 -48 25 -205 75 -265 84
-76 10 -112 6 -132 -17 -16 -18 7 -43 633 -670 l649 -650 -510 -510 c-281
-281 -518 -522 -527 -536 -40 -60 -27 -146 30 -195 23 -21 83 -42 96 -34 5 4
12 2 16 -3 16 -26 123 72 598 547 l513 513 291 -290 c159 -160 288 -293 285
-296 -3 -3 0 -5 6 -5 14 0 161 -148 154 -155 -3 -3 -1 -5 5 -5 6 0 64 -53 129
-119 66 -65 132 -126 147 -136 35 -23 108 -23 142 -1 14 9 25 13 25 9 0 -4 11
9 25 29 43 63 47 128 12 179 -39 54 -743 759 -771 770 -123 50 -229 165 -241
261 -4 31 1 40 43 80 65 62 142 113 207 137 69 26 93 31 182 36 147 9 230 41
301 114 52 54 93 101 86 101 -2 0 4 8 14 18 18 20 25 28 82 102 19 25 38 47
42 48 5 2 8 10 8 17 0 7 4 15 8 17 5 2 56 62 113 133 57 72 109 136 116 143 7
7 13 16 13 20 0 4 14 23 31 41 l30 35 -33 32 -33 32 -39 -42 c-21 -22 -73 -77
-115 -122 -120 -127 -339 -358 -421 -445 l-75 -80 -38 39 -38 39 331 330 c181
182 330 334 330 340 0 5 -11 19 -25 31 l-25 22 -334 -334 c-319 -319 -335
-334 -355 -320 -55 39 -63 29 289 381 182 182 330 334 330 340 0 5 -11 20 -25
33 -21 20 -27 21 -42 9 -10 -8 -153 -149 -319 -314 -166 -165 -311 -308 -322
-319 -21 -18 -22 -18 -58 17 l-36 35 67 63 c96 92 136 129 280 264 70 66 147
138 170 160 23 22 72 68 110 103 l69 64 -32 29 c-32 30 -42 35 -42 22z"/>
</g>
</svg>
